<svg xmlns="http://www.w3.org/2000/svg" xmlns:xlink="http://www.w3.org/1999/xlink" version="1.1" x="0px" y="0px" viewBox="0 0 100 125" enable-background="new 0 0 100 100" xml:space="preserve"><g><rect x="-330" y="-138" width="185" height="99"/><rect x="-138" y="-174" width="100" height="30"/><text transform="matrix(1 0 0 1 -72 -157.5)" fill="#000000" font-family="'Helvetica'" font-size="2.4">http://thenounproject.com</text><text transform="matrix(1 0 0 1 -130.834 -162.5)"><tspan x="0" y="0" fill="#000000" font-family="'Helvetica-Bold'" font-size="6.1578">The Noun Project</tspan><tspan x="1.12" y="4.8" fill="#000000" font-family="'Helvetica-Bold'" font-size="4">Icon Template</tspan></text><text transform="matrix(1 0 0 1 -316.5 -127.5)" fill="#000000" font-family="'Helvetica-Bold'" font-size="6.1578">Reminders</text><line fill="#000000" stroke="#FFFFFF" stroke-miterlimit="10" x1="-130" y1="-152.5" x2="-120" y2="-152.5"/><line fill="#000000" stroke="#FFFFFF" stroke-miterlimit="10" x1="-317" y1="-121.5" x2="-300" y2="-121.5"/><g><g><g><rect x="-308.802" y="-106.682" fill="#000000" width="8.721" height="8.642"/><path fill="#000000" d="M-302.455-95.688h4.747v-4.703h-4.747V-95.688z M-297.266-95.251h-5.63v-5.579h5.63V-95.251      L-297.266-95.251z M-304.221-93.938h8.279v-8.203h-8.279V-93.938L-304.221-93.938z M-295.5-93.5h-9.163v-9.079h9.163V-93.5      L-295.5-93.5z"/><polygon fill="#000000" points="-304.149,-93.867 -304.292,-94.009 -296.013,-102.213 -295.871,-102.071     "/></g></g></g><rect x="-317" y="-80" fill="none" width="35" height="32.5"/><text transform="matrix(1 0 0 1 -317 -77.8428)"><tspan x="0" y="0" fill="#000000" font-family="'Helvetica-Bold'" font-size="3">Strokes</tspan><tspan x="0" y="5" fill="#000000" font-family="'Helvetica'" font-size="2.4">Try to keep strokes at 4px</tspan><tspan x="0" y="10" fill="#000000" font-family="'Helvetica'" font-size="2.4">Minimum stroke weight is 2px</tspan><tspan x="0" y="14.5" fill="#000000" font-family="'Helvetica'" font-size="2.4">For thicker strokes use even </tspan><tspan x="0" y="17.5" fill="#000000" font-family="'Helvetica'" font-size="2.4">numbers: 6px, 8px etc.</tspan><tspan x="0" y="22" fill="#000000" font-family="'Helvetica-Bold'" font-size="2.4">Remember to expand strokes </tspan><tspan x="0" y="25" fill="#000000" font-family="'Helvetica-Bold'" font-size="2.4">before saving as an SVG </tspan></text><rect x="-274.5" y="-80" fill="none" width="35" height="32.5"/><text transform="matrix(1 0 0 1 -274.5 -77.8428)"><tspan x="0" y="0" fill="#000000" font-family="'Helvetica-Bold'" font-size="3">Size</tspan><tspan x="0" y="5" fill="#000000" font-family="'Helvetica'" font-size="2.4">Cannot be wider or taller than </tspan><tspan x="0" y="8.5" fill="#000000" font-family="'Helvetica'" font-size="2.4">100px (artboard size)</tspan><tspan x="0" y="13.5" fill="#000000" font-family="'Helvetica'" font-size="2.4">Scale your icon to fill as much of </tspan><tspan x="0" y="16.5" fill="#000000" font-family="'Helvetica'" font-size="2.4">the artboard as possible</tspan></text><rect x="-232" y="-80" fill="none" width="35" height="32.5"/><text transform="matrix(1 0 0 1 -232 -77.8428)"><tspan x="0" y="0" fill="#000000" font-family="'Helvetica-Bold'" font-size="3">Ungroup</tspan><tspan x="0" y="5" fill="#000000" font-family="'Helvetica'" font-size="2.4">If your design has more than one </tspan><tspan x="0" y="8" fill="#000000" font-family="'Helvetica'" font-size="2.4">shape, make sure to ungroup</tspan></text><rect x="-188" y="-80" fill="none" width="35" height="32.5"/><text transform="matrix(1 0 0 1 -188 -77.8428)"><tspan x="0" y="0" fill="#000000" font-family="'Helvetica-Bold'" font-size="3">Save as</tspan><tspan x="0" y="5" fill="#000000" font-family="'Helvetica'" font-size="2.4">Save as .SVG and make sure </tspan><tspan x="0" y="8" fill="#000000" font-family="'Helvetica'" font-size="2.4">“Use Artboards” is checked</tspan></text><text transform="matrix(1.0074 0 0 1 -263.542 -107.4067)" fill="#000000" font-family="'Helvetica'" font-size="2.5731">100px</text><text transform="matrix(1.0074 0 0 1 -179 -99)" fill="#000000" font-family="'Helvetica-Bold'" font-size="5.1462">.SVG</text><rect x="-264.514" y="-103.185" fill="#000000" width="10.261" height="10.185"/><rect x="-264.477" y="-106.234" fill="#000000" width="0.522" height="2.337"/><rect x="-254.812" y="-106.234" fill="#000000" width="0.523" height="2.337"/><rect x="-265" y="-105.663" fill="#000000" width="11.233" height="0.572"/><g><rect x="-221.805" y="-104.156" fill="#000000" width="10.305" height="10.156"/><rect x="-214.809" y="-109.293" fill="#000000" width="3.308" height="3.261"/></g><rect x="-316.5" y="-115.5" fill="#000000" stroke="#FFFFFF" stroke-miterlimit="10" width="30" height="30"/><rect x="-274.5" y="-115.5" fill="#000000" stroke="#FFFFFF" stroke-miterlimit="10" width="30" height="30"/><rect x="-231.5" y="-115.5" fill="#000000" stroke="#FFFFFF" stroke-miterlimit="10" width="30" height="30"/><rect x="-187.5" y="-115.5" fill="#000000" stroke="#FFFFFF" stroke-miterlimit="10" width="30" height="30"/></g><g><g><path d="M-76.235,18.932c-7.937,0.391-10.328,7.407-10.275,14.361c0.033,4.454,1.437,7.103,3.406,10.993    c3.362,6.641,6.725,13.28,10.087,19.92c0.396,0.78,0.791,1.562,1.186,2.342c0.368,0.725-0.249-0.917,0.088,0.328    c0.789,2.909-0.413,5.153-3.282,6.138c-2.672,0.917-6.11,0.537-8.922,0.537c-3.786,0-7.572,0-11.358,0    c-2.909,0-6.984,0.325-8.714-2.472c-0.456-0.736-0.42-1.85-0.281-2.666c0.113-0.663,0.591-1.726,0.169-0.841    c2.674-5.613,5.348-11.228,8.022-16.842c1.791-3.76,5.305-8.561,5.882-12.759c1.088-7.928-0.24-18.552-10.155-19.04    c-3.385-0.167-3.369,5.084,0,5.25c4.42,0.218,5.101,4.724,5.247,8.335c0.053,1.319-0.033,2.646-0.155,3.959    c-0.115,1.232,0.47-0.616-0.073,0.522c-2.883,6.055-5.767,12.108-8.65,18.162c-1.745,3.664-4.25,7.515-5.268,11.48    c-1.648,6.425,2.796,10.904,8.885,11.901c6.252,1.024,13.096,0.259,19.402,0.259c6.006,0,13.175-1.184,14.54-8.123    c0.731-3.716-0.714-6.525-2.317-9.693c-3.383-6.68-6.766-13.36-10.148-20.04c-0.665-1.313-1.33-2.627-1.995-3.939    c-0.486-0.961,0.007,0.567-0.176-1.046c-0.463-4.103-0.729-11.502,4.857-11.777C-72.866,24.016-72.85,18.765-76.235,18.932    L-76.235,18.932z"/></g><g><path d="M57.6-101.272c-4.85,0-9.699,0-14.549,0c-3.572,0-6.97,0.09-10.159,1.986c-6.396,3.801-2.308,12.815-0.518,18.048    c2.086,6.101,4.849,11.901,7.187,17.893c2.137,5.476,10.312,5.968,14.95,4.027c4.445-1.858,5.771-7.811,7.412-11.897    c2.651-6.605,7.088-15.621,6.172-22.913C67.466-99.129,62.056-101.221,57.6-101.272c-3.387-0.04-3.383,5.211,0,5.25    c1.115,0.013,2.161,0.256,3.225,0.582c3.276,1.002,1.87,4.753,1.305,7.157c-1.342,5.711-3.497,11.259-5.679,16.694    c-1.082,2.697-2.019,6.913-5.052,7.822c-4.818,1.443-6.932-1.385-8.563-5.135c-2.317-5.328-4.433-10.752-6.252-16.271    c-0.725-2.199-2.724-6.527-1.732-8.793c0.703-1.606,3.44-1.95,4.968-2.046c5.882-0.37,11.887-0.01,17.781-0.01    C60.985-96.022,60.985-101.272,57.6-101.272z"/></g><g><path d="M54.564-116.875c-0.451,8.378-12.55,8.378-13.001,0C41.111-125.26,54.115-125.216,54.564-116.875    c0.182,3.367,5.433,3.385,5.25,0c-0.357-6.644-5.106-11.392-11.75-11.75c-6.63-0.357-11.422,5.643-11.751,11.75    c-0.357,6.629,5.646,11.419,11.751,11.748c6.628,0.357,11.421-5.643,11.75-11.748C59.997-120.26,54.746-120.242,54.564-116.875z"/></g><g><path d="M50.147-60.022c0,2.873,0,5.746,0,8.619c0,3.386,5.25,3.386,5.25,0c0-2.873,0-5.746,0-8.619    C55.397-63.408,50.147-63.408,50.147-60.022L50.147-60.022z"/></g><g><path d="M42.342-60.022c0,2.873,0,5.746,0,8.619c0,3.386,5.25,3.386,5.25,0c0-2.873,0-5.746,0-8.619    C47.592-63.408,42.342-63.408,42.342-60.022L42.342-60.022z"/></g><g><path d="M-82.801-116.875c-0.451,8.377-12.551,8.378-13.002,0C-96.254-125.261-83.25-125.215-82.801-116.875    c0.182,3.367,5.433,3.385,5.25,0c-0.358-6.644-5.108-11.392-11.752-11.75c-6.629-0.357-11.421,5.644-11.75,11.75    c-0.357,6.628,5.645,11.419,11.75,11.748c6.628,0.357,11.423-5.643,11.752-11.748C-77.368-120.26-82.619-120.242-82.801-116.875z"/></g><g><path d="M-97.168-58.274c4.849,0,9.698,0,14.547,0c3.573,0,6.97-0.091,10.16-1.986c6.396-3.801,2.31-12.814,0.52-18.049    c-2.087-6.101-4.851-11.901-7.188-17.892c-2.137-5.476-10.312-5.967-14.95-4.028c-4.445,1.858-5.771,7.811-7.412,11.897    c-2.651,6.607-7.084,15.621-6.17,22.915C-107.035-60.418-101.623-58.326-97.168-58.274c3.387,0.04,3.383-5.21,0-5.25    c-1.115-0.013-2.161-0.256-3.225-0.582c-3.275-1.002-1.868-4.754-1.304-7.157c1.342-5.712,3.497-11.261,5.678-16.695    c1.083-2.697,2.018-6.913,5.052-7.821c4.818-1.444,6.931,1.384,8.562,5.134c2.318,5.329,4.434,10.752,6.254,16.272    c0.725,2.199,2.724,6.526,1.731,8.794c-0.704,1.606-3.442,1.95-4.97,2.046c-5.881,0.37-11.885,0.01-17.779,0.01    C-100.554-63.524-100.554-58.274-97.168-58.274z"/></g><g><path d="M-87.218-60.022c0,2.873,0,5.746,0,8.619c0,3.386,5.25,3.386,5.25,0c0-2.873,0-5.746,0-8.619    C-81.968-63.408-87.218-63.408-87.218-60.022L-87.218-60.022z"/></g><g><path d="M-95.023-60.022c0,2.873,0,5.746,0,8.619c0,3.386,5.25,3.386,5.25,0c0-2.873,0-5.746,0-8.619    C-89.773-63.408-95.023-63.408-95.023-60.022L-95.023-60.022z"/></g><g><path d="M175.181,19.329c-13.99,0.248-11.67,16.748-11.67,26.258c0,7.033,0,14.067,0,21.102c0,5.978,1.95,11.313,8.369,12.691    c4.21,0.903,9.137,0.239,13.376,0.239c5.392,0,10.821,0.192,16.21-0.009c6.475-0.241,12.148-4.488,12.15-11.342    c0.002-6.236,0.004-12.474,0.006-18.71c0.001-2.899,1.252-9.062-0.646-11.606c-3.688-4.948-7.376-9.896-11.063-14.843    c-0.843-1.13-1.957-3.285-3.417-3.687c-1.89-0.52-4.348-0.094-6.269-0.094C186.545,19.329,180.863,19.329,175.181,19.329    c-3.386,0-3.386,5.25,0,5.25c7.539,0,15.078,0,22.617,0c-0.756-0.434-1.511-0.867-2.267-1.3    c3.639,4.882,7.277,9.764,10.917,14.646c0.665,0.893,1.33,1.784,1.995,2.677c0.752,1.009-0.068-1.924-0.068-0.238    c-0.001,3.065-0.002,6.131-0.003,9.195c-0.002,6.236-0.004,12.474-0.006,18.71c-0.002,6.385-6.739,6.101-11.245,6.101    c-6.955,0-13.909,0-20.863,0c-4.978,0-7.497-1.808-7.497-7.265c0-6.848,0-13.694,0-20.542c0-5.424-0.627-11.257,0.137-16.653    c0.44-3.121,3.209-5.275,6.283-5.33C178.562,24.52,178.568,19.269,175.181,19.329z"/></g><g><path d="M194.375,26c0,4.264,0,8.527,0,12.791c0,1.05,0.791,2.376,1.927,2.531c3.433,0.47,6.865,0.939,10.298,1.409    c3.31,0.453,4.737-4.605,1.396-5.062c-3.433-0.47-6.865-0.939-10.298-1.409c0.642,0.844,1.284,1.688,1.927,2.531    c0-4.264,0-8.527,0-12.791C199.625,22.614,194.375,22.614,194.375,26L194.375,26z"/></g><path d="M72.618,58.986c0.002-6.238,0.005-12.478,0.007-18.717c0.002-4.259-0.266-8.761-1.281-12.903   c-1.221-4.979-7.415-5.663-11.659-5.897c-7.411-0.409-14.929-0.023-22.351-0.023c-13.973,0.275-10.875,18.523-10.875,27.74   c0,8.857-3.447,28.521,10.771,27.709c5.849-0.334,11.808-0.006,17.665-0.006c4.678,0,9.256,0.422,13.421-2.165   C73.674,71.396,72.616,64.357,72.618,58.986z M64.943,70.64c-3.754,2.332-10.763,0.999-14.778,0.999   c-4.718,0-9.893,0.726-14.571-0.079C30.167,70.625,32,60.788,32,56.819c0-7.204,0-14.408,0-21.611C32,31.29,32.454,27,37.334,27   c6.202,0,12.404,0,18.606,0c1.842,0,3.668-0.159,5.507-0.005c2.042,0.171,4.479,0.393,5.024,2.621   c0.588,2.396,0.636,4.94,0.775,7.395c0.29,5.099,0.125,10.21,0.123,15.313C67.369,56.693,69.39,67.878,64.943,70.64z"/><g><path d="M40.188,39.494c5.882,0,11.764,0,17.646,0c3.386,0,3.386-5.25,0-5.25c-5.882,0-11.764,0-17.646,0    C36.803,34.244,36.803,39.494,40.188,39.494L40.188,39.494z"/></g><g><path d="M57.539,55.51c0.197,0,0.396,0,0.593,0c1.431,0,2.625-1.194,2.625-2.625s-1.194-2.625-2.625-2.625    c-0.197,0-0.396,0-0.593,0c-1.431,0-2.625,1.194-2.625,2.625S56.108,55.51,57.539,55.51L57.539,55.51z"/></g><g><path d="M49.233,55.51c0.197,0,0.396,0,0.593,0c1.431,0,2.625-1.194,2.625-2.625s-1.194-2.625-2.625-2.625    c-0.197,0-0.396,0-0.593,0c-1.431,0-2.625,1.194-2.625,2.625S47.803,55.51,49.233,55.51L49.233,55.51z"/></g><g><path d="M41,55.51c0.197,0,0.396,0,0.593,0c1.431,0,2.625-1.194,2.625-2.625s-1.194-2.625-2.625-2.625c-0.197,0-0.396,0-0.593,0    c-1.431,0-2.625,1.194-2.625,2.625S39.569,55.51,41,55.51L41,55.51z"/></g><g><path d="M57.539,65c0.197,0,0.396,0,0.593,0c1.431,0,2.625-1.194,2.625-2.625s-1.194-2.625-2.625-2.625c-0.197,0-0.396,0-0.593,0    c-1.431,0-2.625,1.194-2.625,2.625S56.108,65,57.539,65L57.539,65z"/></g><g><path d="M49.233,65c0.197,0,0.396,0,0.593,0c1.431,0,2.625-1.194,2.625-2.625s-1.194-2.625-2.625-2.625c-0.197,0-0.396,0-0.593,0    c-1.431,0-2.625,1.194-2.625,2.625S47.803,65,49.233,65L49.233,65z"/></g><g><path d="M41,65c0.197,0,0.396,0,0.593,0c1.431,0,2.625-1.194,2.625-2.625s-1.194-2.625-2.625-2.625c-0.197,0-0.396,0-0.593,0    c-1.431,0-2.625,1.194-2.625,2.625S39.569,65,41,65L41,65z"/></g><g><path d="M478.677,169.214c-11.166,11.167-22.332,22.334-33.498,33.5c-2.396,2.396,1.316,6.108,3.713,3.713    c11.166-11.167,22.332-22.334,33.498-33.5C484.785,170.53,481.073,166.818,478.677,169.214L478.677,169.214z"/></g><g><path d="M454.161,176.369c-2.771,2.552-6.682-1.353-4.125-4.122C452.594,169.475,456.704,173.61,454.161,176.369    c-2.29,2.484,1.413,6.207,3.713,3.713c3.099-3.362,3.097-8.187-0.002-11.548c-3.098-3.359-8.393-2.916-11.549,0    c-3.355,3.101-2.915,8.388,0,11.548c3.101,3.359,8.389,2.911,11.551,0C460.369,177.784,456.646,174.081,454.161,176.369z"/></g><g><path d="M478.146,202.727c-2.769,2.555-6.679-1.354-4.123-4.123C476.579,195.832,480.692,199.968,478.146,202.727    c-2.292,2.483,1.412,6.205,3.713,3.713c3.102-3.361,3.101-8.188-0.002-11.549c-3.1-3.355-8.388-2.914-11.547,0    c-3.356,3.098-2.915,8.391,0,11.548c3.101,3.357,8.388,2.915,11.549,0.001C484.352,204.14,480.63,200.436,478.146,202.727z"/></g><g><path d="M309.779,35.369c1.532-5.441,3.063-10.882,4.596-16.322c-1.688,0-3.375,0-5.062,0c1.286,5.24,2.571,10.479,3.857,15.72    c0.299,1.218,0.054-0.515,0.054,0.164c0,0.644,0,1.288,0,1.933c0,2.726,0,5.451,0,8.177c0,11.369,0,22.739,0,34.108    c0.434-0.756,0.867-1.511,1.3-2.267c-1.399,0.815-2.799,1.632-4.198,2.447c0.884,0,1.767,0,2.65,0    c-1.468-0.841-2.936-1.682-4.402-2.522c0.433,0.756,0.866,1.511,1.3,2.267c0-14.801,0-29.602,0-44.402c0-3.386-5.25-3.386-5.25,0    c0,14.801,0,29.602,0,44.402c0,0.919,0.5,1.808,1.3,2.267c1.468,0.841,2.936,1.682,4.402,2.522c0.817,0.469,1.833,0.477,2.65,0    c1.755-1.023,5.498-2.26,5.498-4.743c0-1.662,0-3.323,0-4.985c0-8.189,0-16.378,0-24.567c0-4.965,0-9.931,0-14.896    c0-2.55-1.266-5.475-1.865-7.919c-0.745-3.034-1.489-6.067-2.233-9.102c-0.63-2.565-4.372-2.451-5.062,0    c-1.532,5.441-3.063,10.882-4.596,16.322C303.798,37.238,308.863,38.622,309.779,35.369z"/></g><g><path d="M326.229,20.625c5.257,0,10.515,0,15.771,0c-0.875-0.875-1.75-1.75-2.625-2.625c0,21.025,0,42.05,0,63.075    c0.875-0.875,1.75-1.75,2.625-2.625c-5.257,0-10.515,0-15.771,0c0.875,0.875,1.75,1.75,2.625,2.625c0-21.025,0-42.05,0-63.075    c0-3.386-5.25-3.386-5.25,0c0,21.025,0,42.05,0,63.075c0,1.431,1.194,2.625,2.625,2.625c5.257,0,10.515,0,15.771,0    c1.431,0,2.625-1.194,2.625-2.625c0-21.025,0-42.05,0-63.075c0-1.431-1.194-2.625-2.625-2.625c-5.257,0-10.515,0-15.771,0    C322.843,15.375,322.843,20.625,326.229,20.625z"/></g><g><path d="M308.389,35.922c2.175-0.006,4.35-0.013,6.524-0.019c3.385-0.01,3.386-5.26,0-5.25c-2.175,0.006-4.35,0.013-6.524,0.019    C305.004,30.682,305.003,35.932,308.389,35.922L308.389,35.922z"/></g><g><path d="M334.885,33.11c1.581,0,3.161,0,4.742,0c3.386,0,3.386-5.25,0-5.25c-1.581,0-3.161,0-4.742,0    C331.499,27.86,331.499,33.11,334.885,33.11L334.885,33.11z"/></g><g><path d="M334.885,46.161c1.581,0,3.161,0,4.742,0c3.386,0,3.386-5.25,0-5.25c-1.581,0-3.161,0-4.742,0    C331.499,40.911,331.499,46.161,334.885,46.161L334.885,46.161z"/></g><g><path d="M334.885,59.211c1.581,0,3.161,0,4.742,0c3.386,0,3.386-5.25,0-5.25c-1.581,0-3.161,0-4.742,0    C331.499,53.961,331.499,59.211,334.885,59.211L334.885,59.211z"/></g><g><path d="M334.885,72.262c1.581,0,3.161,0,4.742,0c3.386,0,3.386-5.25,0-5.25c-1.581,0-3.161,0-4.742,0    C331.499,67.012,331.499,72.262,334.885,72.262L334.885,72.262z"/></g><g><path d="M-105.06,190.078c-0.011-3.844,1.227-7.717,3.357-10.889c3.239-4.822,9.751-5.448,15.049-4.64    c7.906,1.207,12.812,6.373,13.028,14.492c0.145,5.429-0.014,10.881-0.021,16.312c-0.013,10.412-8.535,15.905-18.687,14.36    c-7.052-1.072-12.726-5.909-12.726-13.476C-105.06,200.852-105.06,195.465-105.06,190.078c0-3.386-5.25-3.386-5.25,0    c0,5.486,0,10.974,0,16.46c0,8.204,5.306,14.488,12.707,17.255c11.6,4.335,26.459-0.889,28.868-13.863    c0.727-3.912,0.343-8.146,0.348-12.082c0.01-6.988,0.78-14.379-3.327-20.475c-6.635-9.848-24.109-11.207-32.501-3.281    c-4.115,3.886-6.109,10.424-6.094,15.986C-110.3,193.463-105.05,193.464-105.06,190.078z"/></g><g><path d="M-108.382,192.609c11.921,4.358,26.293,2.572,38.081-1.036c3.228-0.988,1.85-6.056-1.396-5.062    c-10.963,3.356-24.186,5.095-35.289,1.036C-110.174,186.382-111.535,191.457-108.382,192.609L-108.382,192.609z"/></g><g><path d="M-92.701,171.69c0.245,6.892,0.49,13.784,0.734,20.676c0.12,3.375,5.37,3.387,5.25,0    c-0.245-6.892-0.49-13.784-0.734-20.676C-87.571,168.315-92.821,168.304-92.701,171.69L-92.701,171.69z"/></g><g><path d="M-92.196,169.747c-0.056-3.809-1.59-7.592-4.376-10.195c-2.5-2.337-11.962-3.574-7.366-8.695    c2.254-2.512-1.446-6.237-3.712-3.713c-3.14,3.499-3.484,8.522-0.436,12.144c2.424,2.879,6.846,2.273,9.063,5.342    c1.023,1.416,1.551,3.375,1.576,5.118C-97.397,173.13-92.147,173.135-92.196,169.747L-92.196,169.747z"/></g><g><path d="M85.698,207.695c0-11.578,0-23.156,0-34.733c0-3.246-3.158-4.798-5.595-6.49c-4.459-3.099-10.029-4.465-15.398-3.978    c-5.688,0.516-11.628,3.546-15.53,7.733c-0.58,0.623-1.034,1.7-0.675,2.555c0.003,0.006,0.005,0.012,0.008,0.019    c1.463-0.852,2.925-1.703,4.388-2.555c-7.72-6.732-17.143-10.08-26.974-5.958c-3.043,1.275-9.547,4.326-9.547,8.353    c0,11.678,0,23.355,0,35.033c0,2.23,2.897,3.556,4.481,1.856c8.098-8.69,19.841-7.38,28.326,0.021    c1.812,1.58,5.357,0.111,4.388-2.555c-0.003-0.007-0.005-0.014-0.008-0.021c-0.225,0.852-0.45,1.703-0.675,2.555    c8.098-8.691,19.844-7.38,28.329,0.021c2.54,2.214,6.269-1.483,3.713-3.713c-6.911-6.027-14.98-9.401-24.125-7.005    c-4.258,1.115-8.619,3.753-11.63,6.983c-0.604,0.649-0.996,1.671-0.675,2.555c0.003,0.007,0.005,0.014,0.008,0.021    c1.463-0.852,2.925-1.703,4.388-2.555c-6.91-6.027-14.979-9.401-24.122-7.005c-4.259,1.115-8.619,3.753-11.63,6.983    c1.494,0.619,2.987,1.237,4.481,1.856c0-10.132,0-20.264,0-30.395c0-1.626,0-3.252,0-4.878c0-1.257-1.487,2.258-0.472,1.233    c0.709-0.715,1.49-1.359,2.299-1.958c8.487-6.282,18.049-4.417,25.73,2.282c1.757,1.532,5.502,0.093,4.388-2.555    c-0.003-0.006-0.005-0.012-0.008-0.019c-0.225,0.852-0.45,1.703-0.675,2.555c3.314-3.558,8.144-5.863,12.955-6.3    c2.318-0.211,4.564,0.263,6.767,0.93c1.201,0.416,2.35,0.942,3.446,1.58c0.712,0.378,4.393,3.791,4.393,1.988    c0,1.485,0,2.971,0,4.456c0,10.366,0,20.733,0,31.101C80.448,211.081,85.698,211.081,85.698,207.695z"/></g><g><path d="M48.406,172.084c0,11.863,0,23.727,0,35.59c0,3.386,5.25,3.386,5.25,0c0-11.863,0-23.727,0-35.59    C53.656,168.698,48.406,168.698,48.406,172.084L48.406,172.084z"/></g><g><path d="M161.019-100.429c0,11.567,0,23.134,0,34.7c0,3.386,5.25,3.386,5.25,0c0-11.566,0-23.133,0-34.7    C166.269-103.814,161.019-103.814,161.019-100.429L161.019-100.429z"/></g><g><path d="M210.252-100.429c0,11.567,0,23.134,0,34.7c0,3.386,5.25,3.386,5.25,0c0-11.566,0-23.133,0-34.7    C215.502-103.814,210.252-103.814,210.252-100.429L210.252-100.429z"/></g><g><path d="M218.848-90.264c-11.994-7.893-23.988-15.785-35.982-23.678c-2.838-1.867-5.465,2.681-2.65,4.533    c11.994,7.893,23.988,15.785,35.982,23.678C219.035-83.863,221.662-88.412,218.848-90.264L218.848-90.264z"/></g><g><path d="M160.325-85.73c11.993-7.893,23.987-15.785,35.981-23.678c2.814-1.852,0.188-6.4-2.65-4.533    c-11.993,7.893-23.987,15.785-35.981,23.678C154.86-88.412,157.487-83.863,160.325-85.73L160.325-85.73z"/></g><g><path d="M60.856,319.235c-3.322-4.013-6.644-8.026-9.965-12.04c-0.619,1.494-1.237,2.987-1.856,4.481c0.038,0,0.077,0,0.115,0    c-0.619-1.494-1.237-2.987-1.856-4.481c-3.32,4.014-6.642,8.027-9.963,12.04c-2.141,2.587,1.552,6.323,3.713,3.713    c3.32-4.014,6.642-8.027,9.963-12.04c1.401-1.694,0.596-4.481-1.856-4.481c-0.038,0-0.077,0-0.115,0    c-2.451,0-3.259,2.787-1.856,4.481c3.322,4.013,6.644,8.026,9.965,12.04C59.305,325.559,62.997,321.822,60.856,319.235    L60.856,319.235z"/></g><g><path d="M46.41,309.755c0,9.082,0,18.163,0,27.245c0,3.386,5.25,3.386,5.25,0c0-9.082,0-18.163,0-27.245    C51.66,306.369,46.41,306.369,46.41,309.755L46.41,309.755z"/></g><g><path d="M-101.665,326.814c3.32,4.013,6.641,8.026,9.962,12.04c0.619-1.494,1.237-2.987,1.856-4.481c-0.038,0-0.076,0-0.113,0    c0.619,1.494,1.237,2.987,1.856,4.481c3.32-4.014,6.64-8.027,9.96-12.04c2.14-2.588-1.553-6.323-3.713-3.713    c-3.319,4.014-6.64,8.027-9.959,12.04c-1.402,1.694-0.596,4.481,1.856,4.481c0.038,0,0.076,0,0.113,0    c2.452,0,3.258-2.787,1.856-4.481c-3.32-4.013-6.641-8.026-9.962-12.04C-100.113,320.491-103.805,324.227-101.665,326.814    L-101.665,326.814z"/></g><g><path d="M-87.222,336.295c0-9.081,0-18.162,0-27.243c0-3.386-5.25-3.386-5.25,0c0,9.081,0,18.162,0,27.243    C-92.472,339.681-87.222,339.681-87.222,336.295L-87.222,336.295z"/></g><g><path d="M172.304,312.96c7.947,7.947,15.894,15.896,23.84,23.844c2.396,2.396,6.108-1.316,3.713-3.713    c-7.947-7.947-15.894-15.896-23.84-23.844C173.62,306.852,169.908,310.563,172.304,312.96L172.304,312.96z"/></g><g><path d="M196.144,309.247c-7.946,7.948-15.893,15.896-23.84,23.844c-2.396,2.396,1.316,6.108,3.713,3.713    c7.946-7.948,15.893-15.896,23.84-23.844C202.252,310.563,198.54,306.852,196.144,309.247L196.144,309.247z"/></g><path d="M503-91.884c0-4.608,0.887-9.51-1.511-13.656c-2.066-3.574-6.051-4.46-9.848-4.46c-5.715,0-11.429,0-17.144,0   c-6.452,0-12.904,0-19.356,0c-0.223-2.273-1.358-3.909-3.312-5.135c-1.419-0.89-2.745-0.838-4.352-0.838   c-2.83,0-5.533-0.255-7.584,2.029c-0.962,1.072-1.621,2.546-1.898,3.979c-5.867,0.355-10.492,4.853-10.551,11.103   c-0.078,8.355-0.145,16.892,0.001,25.246C427.692-59.535,444.566-62,453.809-62c8.785,0,17.57,0,26.355,0   c5.691,0,13.797,1.217,18.75-2.123c4.412-2.976,4.086-8.528,4.086-13.208C503-82.182,503-87.033,503-91.884z M446.033-111   c0.971,0,1.94,0,2.911,0c0.052,0,0.126,0.2,0.235,0.26c0.269,0.145,0.545,0.469,0.672,0.74c-2.111,0-4.222,0-6.332,0   C444.071-110.947,444.759-111,446.033-111z M498.147-72.58c-1.086,6.846-11.942,4.58-17.031,4.58c-14.087,0-28.174,0-42.261,0   c-8.652,0-6.24-14.604-6.224-20.5c0.015-5.483-2.061-15.5,6.11-16.5c11.919,0,23.837,0,35.756,0c5.715,0,11.429,0,17.144,0   c6.983,0,6.575,5.94,6.575,11.704C498.217-86.62,499.196-79.193,498.147-72.58z"/><path d="M479.438-85.295c0.016-0.284-0.02-0.535-0.074-0.771c-0.744-7.52-6.276-12.836-13.944-13.25   c-7.912-0.426-13.625,6.733-14.018,14.02c-0.426,7.912,6.73,13.625,14.018,14.018c7.628,0.41,13.197-6.228,13.94-13.234   C479.418-84.751,479.454-85.006,479.438-85.295z M456.652-85.295c-0.609-11.311,16.93-11.25,17.536,0   C473.58-73.993,457.261-73.993,456.652-85.295z"/><g><path d="M298.602,199.119c0.275,13.972,18.523,10.874,27.739,10.874c8.857,0,28.52,3.447,27.71-10.771    c-0.333-5.849-0.006-11.807-0.006-17.664c0-4.678,0.422-9.256-2.165-13.421c-3.327-5.358-10.365-4.301-15.737-4.303    c-6.238-0.002-12.478-0.004-18.717-0.006c-4.259-0.001-8.76,0.264-12.903,1.279c-4.979,1.221-5.662,7.417-5.897,11.66    C298.215,184.179,298.602,191.698,298.602,199.119c0,3.386,5.25,3.386,5.25,0c0-6.202,0-12.404,0-18.606    c0-1.842-0.007-3.668,0.147-5.507c0.172-2.042,0.469-4.479,2.697-5.025c2.396-0.588,4.979-0.636,7.433-0.774    c5.099-0.289,10.229-0.125,15.333-0.123c4.369,0.002,15.572-2.02,18.334,2.428c2.331,3.754,0.999,10.763,0.999,14.778    c0,4.717,0.726,10.037-0.08,14.716c-0.934,5.426-10.771,3.738-14.74,3.738c-7.203,0-14.407,0-21.611,0    c-3.917,0-8.416-0.744-8.512-5.624C303.785,195.738,298.535,195.731,298.602,199.119z"/></g><g><path d="M323.707,166.454c0,13.638,0,27.276,0,40.914c0,3.386,5.25,3.386,5.25,0c0-13.638,0-27.276,0-40.914    C328.957,163.068,323.707,163.068,323.707,166.454L323.707,166.454z"/></g><g><path d="M277.812,190.412c1.828,2.209,3.655,4.418,5.483,6.627c0.412-0.996,0.825-1.991,1.237-2.987c-0.021,0-0.04,0-0.061,0    c0.412,0.996,0.825,1.991,1.237,2.987c1.827-2.209,3.653-4.418,5.48-6.627c1.427-1.725-1.035-4.216-2.475-2.475    c-1.827,2.209-3.653,4.418-5.48,6.627c-0.935,1.13-0.397,2.987,1.237,2.987c0.021,0,0.04,0,0.061,0    c1.635,0,2.172-1.858,1.237-2.987c-1.828-2.209-3.655-4.418-5.483-6.627C278.846,186.197,276.384,188.688,277.812,190.412    L277.812,190.412z"/></g><g><path d="M286.282,195.415c0-4.998,0-9.996,0-14.994c0-2.257-3.5-2.257-3.5,0c0,4.998,0,9.996,0,14.994    C282.782,197.672,286.282,197.672,286.282,195.415L286.282,195.415z"/></g><g><path d="M374.237,185.809c-1.828-2.209-3.656-4.418-5.484-6.627c-0.412,0.996-0.825,1.991-1.237,2.987c0.021,0,0.042,0,0.062,0    c-0.412-0.996-0.825-1.991-1.237-2.987c-1.827,2.209-3.655,4.418-5.482,6.627c-1.427,1.725,1.035,4.216,2.475,2.475    c1.827-2.209,3.655-4.418,5.482-6.627c0.935-1.13,0.397-2.987-1.237-2.987c-0.021,0-0.042,0-0.062,0    c-1.635,0-2.172,1.858-1.237,2.987c1.828,2.209,3.656,4.418,5.484,6.627C373.203,190.023,375.665,187.533,374.237,185.809    L374.237,185.809z"/></g><g><path d="M365.766,180.806c0,4.998,0,9.996,0,14.994c0,2.257,3.5,2.257,3.5,0c0-4.998,0-9.996,0-14.994    C369.266,178.549,365.766,178.549,365.766,180.806L365.766,180.806z"/></g><g><path d="M215.375,188.058c-0.348,14.606-11.708,25.97-26.315,26.317c-14.605,0.348-25.98-12.236-26.315-26.317    c-0.348-14.605,12.234-25.978,26.315-26.312C203.664,161.397,215.04,173.976,215.375,188.058c0.08,3.38,5.331,3.388,5.25,0    c-0.416-17.489-14.076-31.146-31.565-31.562c-17.486-0.416-31.164,14.698-31.565,31.562    c-0.416,17.487,14.701,31.166,31.565,31.567c17.488,0.416,31.164-14.703,31.565-31.567    C220.706,184.67,215.455,184.678,215.375,188.058z"/></g><g><path d="M211.027,205.351c-8.378-10.022-8.492-24.228-0.208-34.345c2.125-2.597-1.566-6.334-3.713-3.713    c-10.213,12.475-10.138,29.394,0.208,41.771C209.488,211.664,213.183,207.929,211.027,205.351L211.027,205.351z"/></g><g><path d="M186.435,159.12c0,19.293,0,38.587,0,57.88c0,3.386,5.25,3.386,5.25,0c0-19.293,0-38.587,0-57.88    C191.685,155.734,186.435,155.734,186.435,159.12L186.435,159.12z"/></g><g><path d="M171.397,209.063c10.344-12.375,10.414-29.297,0.208-41.771c-2.146-2.622-5.837,1.116-3.713,3.713    c8.277,10.115,8.168,24.325-0.208,34.345C165.529,207.929,169.224,211.664,171.397,209.063L171.397,209.063z"/></g><g><path d="M161.792,189.404c17.639,5.771,38.148,4.609,55.974,0.784c3.31-0.71,1.905-5.771-1.396-5.062    c-16.911,3.629-36.44,4.694-53.181-0.784C159.961,183.286,158.59,188.356,161.792,189.404L161.792,189.404z"/></g><g><path d="M490.918,78.11c0-9.106,0-18.212,0-27.318c0-6.284,0-12.569,0-18.854c0-2.226,0.782-6.052-0.105-8.196    c-1.275-3.082-6.357-1.732-5.062,1.396c0.004,0.009,0.008,0.019,0.012,0.028c1.285-0.988,2.57-1.977,3.856-2.965    c-13.854-5.898-28.902-7.723-43.428-3.193c-2.557,0.797-5.196,1.804-7.516,3.165c-1.868,1.097-1.3,4.164-1.3,5.969    c0,16.646,0,33.294,0,49.941c0,1.59,1.699,3.141,3.323,2.531c14.784-5.548,32.17-5.256,46.896,0.027    c2.435,0.873,3.769-1.981,2.965-3.856c-0.004-0.009-0.008-0.018-0.012-0.027c-1.33-3.104-5.852-0.426-4.533,2.65    c0.004,0.009,0.008,0.018,0.012,0.027c0.988-1.286,1.977-2.571,2.965-3.856c-15.505-5.562-34.122-5.869-49.689-0.027    c1.108,0.844,2.216,1.688,3.323,2.531c0-17.881,0-35.763,0-53.644c-0.434,0.756-0.867,1.511-1.3,2.267    c13.532-7.947,31.908-5.819,45.643,0.028c1.794,0.764,4.861-0.537,3.856-2.965c-0.004-0.009-0.008-0.019-0.012-0.028    c-1.275-3.082-6.357-1.732-5.062,1.396c-0.502-1.215-0.082,0.835-0.082,1.581c0,1.981,0,3.964,0,5.945c0,6.043,0,12.086,0,18.128    c0,9.106,0,18.212,0,27.318C485.668,81.496,490.918,81.496,490.918,78.11L490.918,78.11z"/></g><g><path d="M453.55,39.28c6.655-2.792,14.212-2.689,20.85,0c3.14,1.271,4.491-3.809,1.396-5.062c-7.365-2.983-16.243-3.104-23.643,0    C449.08,35.507,450.429,40.59,453.55,39.28L453.55,39.28z"/></g><g><path d="M453.55,50.52c6.655-2.792,14.212-2.688,20.85,0c3.14,1.271,4.491-3.809,1.396-5.062c-7.365-2.983-16.243-3.104-23.643,0    C449.08,46.746,450.429,51.828,453.55,50.52L453.55,50.52z"/></g><g><path d="M453.55,61.926c6.655-2.791,14.212-2.688,20.85,0c3.141,1.271,4.491-3.809,1.396-5.062    c-7.365-2.982-16.243-3.103-23.643,0C449.08,58.152,450.429,63.234,453.55,61.926L453.55,61.926z"/></g><path d="M366.83-82.525c-3.213-4.5-9.194-5.921-12.782-1.951c-3.054-1.435-6.106-2.87-9.159-4.306   c2.595-1.22,5.189-2.44,7.784-3.66c1.129,0.311,2.29,0.528,3.448,0.665c4.182,0.494,7.795-0.207,10.313-3.77   c1.642-2.322,1.669-6.313-0.4-8.394c-1.361-1.369-2.854-2.049-4.723-2.506c-0.158-0.039-0.278-0.047-0.377-0.041   c-0.178-0.991-0.251-2.014-0.408-3.008c-1.34-8.493-14.187-8.271-15.015,0.275c-0.07,0.729-0.058,1.382,0.035,2.021   c-6.64,3.121-13.279,6.242-19.919,9.363c-6.202-2.915-12.404-5.83-18.606-8.746c0.795-7.23-9.565-12.392-13.913-5.361   c-0.834,1.349-1.053,3.119-1.249,4.654c-0.062,0.493-0.127,0.982-0.2,1.471c-0.019-0.279-0.365,0.015-1.544,0.303   c-3.376,0.825-5.663,4.322-4.999,7.718c0.673,3.438,3.024,5.75,6.381,6.602c1.814,0.46,3.875,0.271,5.697-0.035   c0.874-0.147,1.729-0.318,2.589-0.529c0.062-0.015,0.111-0.027,0.166-0.041c2.14,1.006,4.279,2.012,6.418,3.019   c-2.6,1.222-5.198,2.444-7.798,3.666c-3.587-3.971-9.569-2.548-12.78,1.951c-0.293,0.41-0.428,0.814-0.462,1.202   c-1.017,3.379,1.197,6.207,3.457,8.645c0.968,1.044-1.104,2.918-0.959,4.753c0.177,2.227,0.807,3.857,2.53,5.335   c2.821,2.416,6.961,2.09,9.817,0.033c1.539-1.107,2.653-2.693,3.681-4.259c0.482-0.735,0.872-1.535,1.26-2.322   c0.076-0.154,0.146-0.282,0.211-0.399c6.768-3.183,13.535-6.365,20.304-9.547c7.245,3.406,14.491,6.813,21.735,10.221   c0.572,1.24,1.229,2.426,1.981,3.572c2.389,3.641,5.575,5.418,9.89,4.816c3.398-0.475,6.061-4.184,5.464-7.508   c-0.48-2.674-1.96-2.875-0.202-4.77c1.427-1.539,2.609-3.242,3.027-5.32c0.186-0.92,0.05-1.779-0.232-2.629   C367.253-81.723,367.118-82.121,366.83-82.525z M353.156-92.668C353.962-93.036,353.727-92.81,353.156-92.668L353.156-92.668z    M301.557-96.823c-1.407-0.662-2.5-0.163-3.905,0.182c-1.456,0.356-2.897,0.448-4.389,0.417c-2.018-0.042-4.652-3.009-1.752-4.229   c2.472-1.041,4.096-0.21,5.082-3.178c0.394-1.181,0.366-2.604,0.56-3.829c0.663-4.194,5.758-2.021,4.256,1.621   c-0.413,1.003,0.245,2.513,1.206,2.964c5.622,2.643,11.244,5.286,16.866,7.929c-2.322,1.092-4.645,2.183-6.967,3.275   C308.861-93.388,305.209-95.106,301.557-96.823z M303.615-75.153c-2.93,1.378-3.081,3.198-4.875,5.932   c-0.792,1.207-6.385,4.838-5.538,0.128c0.271-1.506,2.286-2.794,1.617-4.579c-0.824-2.2-4.767-4.615-4.354-7.026   c1.61-2.095,3.707-2.172,4.926,0.227c0.689,1.355,2.358,1.521,3.592,0.941c17.007-7.995,34.014-15.989,51.021-23.984   c0.961-0.452,1.619-1.961,1.206-2.964c-1.234-2.995,3.007-6.088,4.072-2.483c0.386,1.304,0.436,2.739,0.622,4.083   c0.258,1.855,1.401,3.236,3.303,3.438c2.104,0.224,3.852,1.026,2.695,3.244c-1.03,1.975-4.311,1.394-6.061,1.099   c-1.626-0.274-3.108-1.151-4.715-0.396c-6.993,3.289-13.987,6.577-20.981,9.866C321.302-83.47,312.459-79.312,303.615-75.153z    M305.417-70.34C305.913-71.161,306.018-70.836,305.417-70.34L305.417-70.34z M357.883-71.291c0.394,1.004,0.904,1.949,1.532,2.838   c1.58,3.762-3.926,1.645-4.574,1.037c-2.66-2.492-2.315-5.441-5.504-6.939c-5.854-2.754-11.709-5.507-17.563-8.26   c2.084-0.979,4.168-1.96,6.252-2.939c0.239-0.112,0.478-0.225,0.717-0.337c4.964,2.334,9.928,4.667,14.892,7.001   c1.233,0.58,2.901,0.414,3.592-0.941c1.222-2.402,3.325-2.322,4.937-0.217c0.464,2.453-3.391,4.418-4.201,6.582   C357.675-72.705,357.688-72.076,357.883-71.291z"/><g><path d="M801.581-98.375c9.249-1.248,10.879,5.441,10.879,5.441s5.117-18.836,19.823-17.5    c24.398,2.218,16.697,20.997,16.697,20.997s5.216,0.118,6.017,5.262c0.337,2.195-0.169,7.972-7.182,7.97h-47.012    C790.146-76.207,787.752-96.508,801.581-98.375z"/><g><path d="M801.581-95.375c2.818-0.262,7.063-0.162,7.986,3.239c0.781,2.88,4.989,2.851,5.785,0     c0.853-3.055,2.35-5.904,4.095-8.535c4.533-6.834,11.285-7.682,18.783-5.643c7.554,2.054,10.689,9.006,7.857,16.078     c-0.768,1.916,1.135,3.702,2.893,3.798c5.137,0.278,3.277,6.964-1.165,7.231c-1.575,0.095-3.186,0-4.763,0     c-8.376,0-16.751,0-25.127,0c-5.671,0-11.342,0-17.013,0c-3.707,0-5.554-3.713-5.88-6.954c-0.504-5.013,2.554-8.479,7.346-9.321     c3.806-0.67,2.188-6.451-1.596-5.786c-11.755,2.068-16.205,18.153-6.6,25.746c2.747,2.172,5.844,2.315,9.155,2.315     c5.184,0,10.368,0,15.552,0c9.605,0,19.21,0,28.815,0c12.562,0,13.963-18.544,1.274-19.231c0.964,1.266,1.929,2.531,2.893,3.798     c3.985-9.952-1.296-19.478-10.935-23.102c-14.849-5.582-27.379,3.711-31.371,18.01c1.929,0,3.856,0,5.785,0     c-1.648-6.079-8.122-8.169-13.771-7.643C797.763-101.02,797.728-95.017,801.581-95.375z"/></g></g><g><path d="M479.453,325.471c-0.322,8.384-6.553,14.615-14.937,14.938c-8.378,0.322-14.635-7.042-14.938-14.938    c-0.322-8.376,7.044-14.633,14.938-14.937C472.893,310.212,479.149,317.576,479.453,325.471c0.13,3.374,5.381,3.387,5.25,0    c-0.436-11.298-8.889-19.752-20.187-20.187c-11.288-0.435-19.778,9.541-20.188,20.187c-0.435,11.29,9.542,19.778,20.188,20.188    c11.29,0.435,19.776-9.542,20.187-20.188C484.834,322.084,479.583,322.097,479.453,325.471z"/></g><g><path d="M467.142,297.872c0-2.624,0-5.248,0-7.872c0-3.386-5.25-3.386-5.25,0c0,2.624,0,5.248,0,7.872    C461.892,301.258,467.142,301.258,467.142,297.872L467.142,297.872z"/></g><g><path d="M467.142,360.966c0-2.624,0-5.247,0-7.871c0-3.386-5.25-3.386-5.25,0c0,2.624,0,5.247,0,7.871    C461.892,364.352,467.142,364.352,467.142,360.966L467.142,360.966z"/></g><g><path d="M436.906,322.859c-2.625,0-5.249,0-7.874,0c-3.386,0-3.386,5.25,0,5.25c2.625,0,5.249,0,7.874,0    C440.292,328.109,440.292,322.859,436.906,322.859L436.906,322.859z"/></g><g><path d="M500,322.859c-2.624,0-5.247,0-7.871,0c-3.386,0-3.386,5.25,0,5.25c2.624,0,5.247,0,7.871,0    C503.386,328.109,503.386,322.859,500,322.859L500,322.859z"/></g><g><path d="M486.121,307.594c1.855-1.856,3.711-3.713,5.566-5.568c2.396-2.396-1.317-6.109-3.713-3.713    c-1.855,1.856-3.711,3.713-5.566,5.568C480.013,306.277,483.726,309.99,486.121,307.594L486.121,307.594z"/></g><g><path d="M441.061,352.653c1.854-1.855,3.709-3.711,5.564-5.565c2.396-2.396-1.316-6.108-3.713-3.713    c-1.854,1.855-3.709,3.711-5.564,5.565C434.952,351.337,438.664,355.049,441.061,352.653L441.061,352.653z"/></g><g><path d="M446.626,303.881c-1.855-1.855-3.711-3.712-5.565-5.568c-2.396-2.396-6.107,1.316-3.713,3.713    c1.855,1.855,3.711,3.712,5.565,5.568C445.309,309.99,449.021,306.277,446.626,303.881L446.626,303.881z"/></g><g><path d="M491.688,348.94c-1.855-1.854-3.71-3.71-5.564-5.565c-2.396-2.396-6.108,1.316-3.713,3.713    c1.855,1.854,3.71,3.71,5.564,5.565C490.371,355.049,494.083,351.337,491.688,348.94L491.688,348.94z"/></g><g><path d="M588.105-114.22c0-3.075,0-6.149,0-9.225c0-3.386-5.25-3.386-5.25,0c0,3.075,0,6.149,0,9.225    C582.855-110.834,588.105-110.834,588.105-114.22L588.105-114.22z"/></g><g><path d="M554.016-85.384c-3.074,0-6.149,0-9.224,0c-3.386,0-3.386,5.25,0,5.25c3.074,0,6.149,0,9.224,0    C557.401-80.134,557.401-85.384,554.016-85.384L554.016-85.384z"/></g><g><path d="M609.808-103.371c2.174-2.176,4.348-4.351,6.522-6.525c2.396-2.396-1.317-6.109-3.713-3.713    c-2.174,2.176-4.348,4.351-6.522,6.525C603.699-104.688,607.412-100.975,609.808-103.371L609.808-103.371z"/></g><g><path d="M563.566-107.086c-2.175-2.174-4.35-4.349-6.523-6.523c-2.396-2.396-6.108,1.316-3.713,3.713    c2.175,2.174,4.35,4.349,6.523,6.523C562.25-100.978,565.962-104.689,563.566-107.086L563.566-107.086z"/></g><path d="M605.033-95.264c-6.354-9.094-18.083-13.5-28.592-8.86c-10.339,4.564-15.24,14.83-13.732,25.775   c0.295,2.144,3.077,2.269,4.388,1.158c1.477-1.252,2.987-1.775,4.813-2.152c2.977-0.221,7.014,0.118,7.944,3.545   c0.685,2.52,4.366,2.495,5.062,0c2.284-8.181,8.518-16.498,17.85-15.516C604.694-91.11,606.114-93.716,605.033-95.264z    M581.643-82.074c-2.743-2.113-6.611-2.814-10.137-2.486c-0.1,0.01-0.188,0.036-0.281,0.055c-0.137,0.007-0.272,0.011-0.417,0.039   c-1.152,0.225-2.2,0.534-3.188,0.94c0.799-14.694,18.609-22.2,29.599-12.736C590.142-94.714,584.724-88.812,581.643-82.074z"/><path d="M622.247-74.831c2.12-8.771-2.864-16.834-11.483-20.076c-12.885-4.846-23.955,1.62-29.121,12.849   c-2.744-2.112-6.612-2.822-10.137-2.494c-0.123,0.012-0.232,0.039-0.347,0.063c-0.116,0.006-0.229,0.002-0.352,0.023   c-11.493,2.022-15.826,17.765-6.434,25.189c2.661,2.104,5.687,2.275,8.89,2.275c5.184,0,10.368,0,15.552,0   c9.605,0,19.211,0,28.816,0C628.459-57,630.702-71.396,622.247-74.831z M617.741-62.196c-1.575,0.095-3.186,0.196-4.763,0.196   c-8.376,0-16.752,0-25.128,0c-5.671,0-11.342,0-17.013,0c-3.932,0-5.907-4.079-6.254-7.525c-0.51-5.065,2.561-8.764,7.339-9.721   c2.976-0.219,7.002,0.075,7.932,3.497c0.685,2.52,4.366,2.471,5.062-0.024c0.861-3.085,2.37-5.98,4.132-8.637   c4.629-6.978,11.539-7.908,19.207-5.822c7.73,2.104,11.025,9.277,8.119,16.537c-0.671,1.677,0.992,3.337,2.531,3.42   C624.534-69.972,622.678-62.493,617.741-62.196z"/><g><path d="M683.429-95.376c2.819-0.263,7.065-0.164,7.988,3.238c0.781,2.88,4.989,2.851,5.785,0c0.853-3.055,2.35-5.905,4.095-8.536    c4.534-6.834,11.287-7.68,18.784-5.642c7.553,2.054,10.687,9.005,7.855,16.076c-0.768,1.916,1.134,3.702,2.893,3.798    c5.137,0.278,3.28,6.966-1.163,7.234c-1.575,0.095-3.186,0-4.763,0c-8.376,0-16.752,0-25.128,0c-5.671,0-11.342,0-17.013,0    c-3.707,0-5.555-3.713-5.881-6.954c-0.505-5.014,2.553-8.479,7.345-9.322c3.806-0.67,2.188-6.451-1.596-5.786    c-11.756,2.068-16.203,18.154-6.598,25.747c2.747,2.172,5.844,2.315,9.155,2.315c5.184,0,10.368,0,15.552,0    c9.605,0,19.211,0,28.816,0c12.563,0,13.961-18.547,1.272-19.234c0.964,1.266,1.929,2.531,2.893,3.798    c3.984-9.951-1.294-19.477-10.934-23.1c-14.849-5.581-27.379,3.71-31.371,18.01c1.929,0,3.856,0,5.785,0    c-1.649-6.08-8.123-8.169-13.773-7.643C679.61-101.02,679.575-95.017,683.429-95.376z"/></g><g><path d="M681.861-97.272c4.244-0.396,9.601,0.574,10.896,5.353c0.098,0.36,0.623,0.356,0.723,0    c0.941-3.376,2.581-6.576,4.513-9.482c5.354-8.054,13.415-9.533,22.394-7.13c9.175,2.454,13.669,11.27,10.159,20.032    c-0.096,0.239,0.142,0.463,0.361,0.475c7.323,0.375,7.776,10.495,1.254,12.659c-2.04,0.676-5.032,0.281-7.139,0.281    c-8.69,0-17.38,0-26.069,0c-5.955,0-11.911,0-17.866,0c-5.423,0-8.266-5.165-8.73-9.946c-0.612-6.285,3.547-11.201,9.604-12.253    c0.476-0.083,0.273-0.806-0.199-0.724c-6.644,1.155-10.409,6.326-10.155,12.977c0.205,5.4,3.842,10.421,9.453,10.696    c12.337,0.604,24.85,0,37.2,0c4.109,0,8.827,0.657,12.906-0.09c4.956-0.907,9.195-7.47,4.91-11.893    c-1.105-1.141-4.324-3.19-4.797-2.008c0.514-1.284,0.794-2.666,1.002-4.027c0.752-4.942-0.656-9.719-4.363-13.131    c-4.242-3.905-12.212-5.845-17.806-4.962c-5.843,0.922-10.065,4.601-13.261,9.408c-1.279,1.925-2.272,4.039-3.142,6.175    c-0.286,0.704-0.536,1.421-0.771,2.143c-0.289,0.886,0.501,0.463,0.471,0.365c-1.55-4.97-7.008-6.091-11.549-5.668    C681.384-97.978,681.38-97.228,681.861-97.272z"/></g><g><defs><path id="b" d="M682.667-97.647c9.572-1.293,11.256,5.628,11.256,5.628s5.298-19.491,20.515-18.108     c25.244,2.294,17.276,21.727,17.276,21.727s5.398,0.12,6.224,5.445c0.354,2.272-0.175,8.247-7.43,8.245h-48.645     C670.838-74.711,668.356-95.715,682.667-97.647z"/></defs><clipPath id="a"><use xlink:href="#b" overflow="visible"/></clipPath><g clip-path="url(#a)"><path d="M668.058-72.254c8.812-14.376,17.624-28.752,26.437-43.128c0.828-1.351-1.291-2.581-2.115-1.236     c-8.812,14.376-17.625,28.752-26.437,43.128C665.114-72.14,667.233-70.909,668.058-72.254L668.058-72.254z"/></g><g clip-path="url(#a)"><path d="M675.652-72.254c8.812-14.376,17.623-28.752,26.435-43.128c0.828-1.351-1.291-2.581-2.115-1.236     c-8.812,14.376-17.623,28.752-26.435,43.128C672.709-72.14,674.828-70.909,675.652-72.254L675.652-72.254z"/></g><g clip-path="url(#a)"><path d="M683.248-72.254c8.812-14.376,17.625-28.752,26.437-43.128c0.828-1.351-1.291-2.581-2.115-1.236     c-8.812,14.376-17.624,28.752-26.437,43.128C680.305-72.14,682.424-70.909,683.248-72.254L683.248-72.254z"/></g><g clip-path="url(#a)"><path d="M690.842-72.254c8.812-14.376,17.625-28.752,26.438-43.128c0.828-1.351-1.291-2.581-2.115-1.236     c-8.812,14.376-17.625,28.752-26.438,43.128C687.898-72.14,690.018-70.909,690.842-72.254L690.842-72.254z"/></g><g clip-path="url(#a)"><path d="M698.437-72.254c8.812-14.376,17.624-28.752,26.436-43.128c0.828-1.351-1.291-2.581-2.115-1.236     c-8.812,14.376-17.624,28.752-26.436,43.128C695.493-72.14,697.612-70.909,698.437-72.254L698.437-72.254z"/></g><g clip-path="url(#a)"><path d="M706.03-72.254c8.812-14.376,17.625-28.752,26.438-43.128c0.828-1.351-1.291-2.581-2.115-1.236     c-8.812,14.376-17.625,28.752-26.438,43.128C703.087-72.14,705.206-70.909,706.03-72.254L706.03-72.254z"/></g><g clip-path="url(#a)"><path d="M713.628-72.254c8.812-14.376,17.622-28.752,26.434-43.128c0.828-1.351-1.291-2.581-2.115-1.236     c-8.812,14.376-17.622,28.752-26.434,43.128C710.685-72.14,712.804-70.909,713.628-72.254L713.628-72.254z"/></g><g clip-path="url(#a)"><path d="M721.222-72.254c8.812-14.376,17.623-28.752,26.435-43.128c0.828-1.351-1.291-2.581-2.115-1.236     c-8.812,14.376-17.623,28.752-26.435,43.128C718.278-72.14,720.397-70.909,721.222-72.254L721.222-72.254z"/></g><g clip-path="url(#a)"><path d="M728.815-72.254c8.813-14.376,17.626-28.752,26.438-43.128c0.828-1.351-1.291-2.581-2.115-1.236     c-8.812,14.376-17.626,28.752-26.438,43.128C725.872-72.14,727.991-70.909,728.815-72.254L728.815-72.254z"/></g><g clip-path="url(#a)"><path d="M736.408-72.254c8.812-14.376,17.626-28.752,26.438-43.128c0.828-1.351-1.291-2.581-2.115-1.236     c-8.813,14.376-17.626,28.752-26.438,43.128C733.465-72.14,735.584-70.909,736.408-72.254L736.408-72.254z"/></g></g><g><path d="M923.601-95.375c2.818-0.262,7.063-0.162,7.986,3.239c0.781,2.88,4.989,2.851,5.785,0c0.853-3.055,2.35-5.904,4.095-8.535    c4.533-6.834,11.285-7.682,18.783-5.643c7.554,2.054,10.689,9.006,7.857,16.078c-0.768,1.916,1.135,3.703,2.893,3.798    c5.137,0.277,3.277,6.963-1.165,7.23c-1.575,0.095-3.186,0-4.763,0c-8.376,0-16.751,0-25.127,0c-5.671,0-11.342,0-17.012,0    c-3.707,0-5.555-3.712-5.881-6.954c-0.504-5.013,2.555-8.478,7.346-9.32c3.806-0.67,2.188-6.451-1.596-5.786    c-11.755,2.068-16.205,18.152-6.6,25.745c2.747,2.172,5.844,2.315,9.155,2.315c5.184,0,10.368,0,15.552,0    c9.605,0,19.21,0,28.814,0c12.562,0,13.964-18.545,1.275-19.23c0.964,1.266,1.929,2.531,2.893,3.798    c3.985-9.952-1.296-19.478-10.935-23.102c-14.849-5.582-27.379,3.711-31.371,18.01c1.929,0,3.856,0,5.785,0    c-1.648-6.079-8.122-8.169-13.771-7.643C919.782-101.02,919.747-95.017,923.601-95.375z"/></g><g><path d="M1050.267-53.084c2.269-3.698,4.536-7.396,6.805-11.094c1.775-2.895-2.767-5.53-4.533-2.65    c-2.269,3.698-4.536,7.396-6.805,11.094C1043.958-52.84,1048.5-50.204,1050.267-53.084L1050.267-53.084z"/></g><g><path d="M1061.071-53.084c2.269-3.698,4.536-7.396,6.805-11.094c1.775-2.895-2.767-5.53-4.533-2.65    c-2.269,3.698-4.536,7.396-6.805,11.094C1054.763-52.84,1059.305-50.204,1061.071-53.084L1061.071-53.084z"/></g><g><path d="M1071.267-53.084c2.269-3.698,4.536-7.396,6.805-11.094c1.775-2.895-2.767-5.53-4.533-2.65    c-2.269,3.698-4.536,7.396-6.805,11.094C1064.958-52.84,1069.5-50.204,1071.267-53.084L1071.267-53.084z"/></g><g><path d="M1041.581-95.375c2.818-0.262,7.063-0.162,7.986,3.239c0.781,2.88,4.989,2.851,5.785,0    c0.853-3.055,2.35-5.904,4.095-8.535c4.533-6.834,11.285-7.682,18.783-5.643c7.554,2.054,10.689,9.006,7.857,16.078    c-0.768,1.916,1.135,3.703,2.893,3.798c5.137,0.277,3.277,6.963-1.165,7.23c-1.575,0.095-3.186,0-4.763,0    c-8.376,0-16.751,0-25.127,0c-5.671,0-11.342,0-17.012,0c-3.707,0-5.555-3.712-5.881-6.954c-0.504-5.013,2.555-8.478,7.346-9.32    c3.806-0.67,2.188-6.451-1.596-5.786c-11.755,2.068-16.205,18.152-6.6,25.745c2.747,2.172,5.844,2.315,9.155,2.315    c5.184,0,10.368,0,15.552,0c9.605,0,19.21,0,28.814,0c12.562,0,13.964-18.545,1.275-19.23c0.964,1.266,1.929,2.531,2.893,3.798    c3.985-9.952-1.296-19.478-10.935-23.102c-14.849-5.582-27.379,3.711-31.371,18.01c1.929,0,3.856,0,5.785,0    c-1.648-6.079-8.122-8.169-13.771-7.643C1037.763-101.02,1037.728-95.017,1041.581-95.375z"/></g><g><path d="M335.733,313.675c-4.946,7-9.894,14-14.84,20.999c0.756-0.433,1.511-0.866,2.267-1.3c1.729-0.011,2.049,1.119,0.405-0.524    c-1.209-1.209-2.418-2.419-3.627-3.628c-1.641-1.641-3.281-3.282-4.922-4.923c-2.396-2.396-6.108,1.316-3.713,3.713    c2.851,2.85,5.7,5.7,8.55,8.55c2.061,2.061,4.05,2.919,6.01,0.146c4.801-6.794,9.603-13.588,14.403-20.382    C342.226,313.553,337.67,310.935,335.733,313.675L335.733,313.675z"/></g></g><text x="0" y="115" fill="#000000" font-size="5px" font-weight="bold" font-family="'Helvetica Neue', Helvetica, Arial-Unicode, Arial, Sans-serif">Created by Alexandra Hawkhead</text><text x="0" y="120" fill="#000000" font-size="5px" font-weight="bold" font-family="'Helvetica Neue', Helvetica, Arial-Unicode, Arial, Sans-serif">from the Noun Project</text></svg>