<?xml version="1.0" encoding="UTF-8" standalone="no"?>
<svg
   version="1.1"
   x="0px"
   y="0px"
   viewBox="0 0 46.610097 55.63834"
   enable-background="new 0 0 100 100"
   xml:space="preserve"
   id="svg506"
   sodipodi:docname="favicon.svg"
   width="46.610096"
   height="55.63834"
   inkscape:version="1.1 (c68e22c387, 2021-05-23)"
   xmlns:inkscape="http://www.inkscape.org/namespaces/inkscape"
   xmlns:sodipodi="http://sodipodi.sourceforge.net/DTD/sodipodi-0.dtd"
   xmlns="http://www.w3.org/2000/svg"
   xmlns:svg="http://www.w3.org/2000/svg"><defs
     id="defs510" /><sodipodi:namedview
     id="namedview508"
     pagecolor="#ffffff"
     bordercolor="#666666"
     borderopacity="1.0"
     inkscape:pageshadow="2"
     inkscape:pageopacity="0.0"
     inkscape:pagecheckerboard="0"
     showgrid="false"
     fit-margin-top="0"
     fit-margin-left="0"
     fit-margin-right="0"
     fit-margin-bottom="0"
     inkscape:zoom="4.2596113"
     inkscape:cx="-6.1038434"
     inkscape:cy="39.088074"
     inkscape:window-width="1920"
     inkscape:window-height="1016"
     inkscape:window-x="0"
     inkscape:window-y="27"
     inkscape:window-maximized="1"
     inkscape:current-layer="g500" /><g
     id="g500"
     transform="translate(-26.091443,-21.281061)"><path
       d="M 72.618,58.986 C 72.62,52.748 72.623,46.508 72.625,40.269 72.627,36.01 72.359,31.508 71.344,27.366 70.123,22.387 63.929,21.703 59.685,21.469 52.274,21.06 44.756,21.446 37.334,21.446 23.361,21.721 26.459,39.969 26.459,49.186 c 0,8.857 -3.447,28.521 10.771,27.709 5.849,-0.334 11.808,-0.006 17.665,-0.006 4.678,0 9.256,0.422 13.421,-2.165 5.358,-3.328 4.3,-10.367 4.302,-15.738 z M 64.943,70.64 c -3.754,2.332 -10.763,0.999 -14.778,0.999 -4.718,0 -9.893,0.726 -14.571,-0.079 C 30.167,70.625 32,60.788 32,56.819 32,49.615 32,42.411 32,35.208 32,31.29 32.454,27 37.334,27 c 6.202,0 12.404,0 18.606,0 1.842,0 3.668,-0.159 5.507,-0.005 2.042,0.171 4.479,0.393 5.024,2.621 0.588,2.396 0.636,4.94 0.775,7.395 0.29,5.099 0.125,10.21 0.123,15.313 0,4.369 2.021,15.554 -2.426,18.316 z"
       id="path156"
       style="fill:#008080" /><g
       id="g160"
       style="fill:#008080"><path
         d="m 40.188,39.494 c 5.882,0 11.764,0 17.646,0 3.386,0 3.386,-5.25 0,-5.25 -5.882,0 -11.764,0 -17.646,0 -3.385,0 -3.385,5.25 0,5.25 z"
         id="path158"
         style="fill:#008080" /></g><g
       id="g164"
       style="fill:#008080"><path
         d="m 57.539,55.51 c 0.197,0 0.396,0 0.593,0 1.431,0 2.625,-1.194 2.625,-2.625 0,-1.431 -1.194,-2.625 -2.625,-2.625 -0.197,0 -0.396,0 -0.593,0 -1.431,0 -2.625,1.194 -2.625,2.625 0,1.431 1.194,2.625 2.625,2.625 z"
         id="path162"
         style="fill:#008080" /></g><g
       id="g168"
       style="fill:#008080"><path
         d="m 49.233,55.51 c 0.197,0 0.396,0 0.593,0 1.431,0 2.625,-1.194 2.625,-2.625 0,-1.431 -1.194,-2.625 -2.625,-2.625 -0.197,0 -0.396,0 -0.593,0 -1.431,0 -2.625,1.194 -2.625,2.625 0,1.431 1.195,2.625 2.625,2.625 z"
         id="path166"
         style="fill:#008080" /></g><g
       id="g172"
       style="fill:#008080"><path
         d="m 41,55.51 c 0.197,0 0.396,0 0.593,0 1.431,0 2.625,-1.194 2.625,-2.625 0,-1.431 -1.194,-2.625 -2.625,-2.625 -0.197,0 -0.396,0 -0.593,0 -1.431,0 -2.625,1.194 -2.625,2.625 0,1.431 1.194,2.625 2.625,2.625 z"
         id="path170"
         style="fill:#008080" /></g><g
       id="g176"
       style="fill:#008080"><path
         d="m 57.539,65 c 0.197,0 0.396,0 0.593,0 1.431,0 2.625,-1.194 2.625,-2.625 0,-1.431 -1.194,-2.625 -2.625,-2.625 -0.197,0 -0.396,0 -0.593,0 -1.431,0 -2.625,1.194 -2.625,2.625 0,1.431 1.194,2.625 2.625,2.625 z"
         id="path174"
         style="fill:#008080" /></g><g
       id="g180"
       style="fill:#008080"><path
         d="m 49.233,65 c 0.197,0 0.396,0 0.593,0 1.431,0 2.625,-1.194 2.625,-2.625 0,-1.431 -1.194,-2.625 -2.625,-2.625 -0.197,0 -0.396,0 -0.593,0 -1.431,0 -2.625,1.194 -2.625,2.625 0,1.431 1.195,2.625 2.625,2.625 z"
         id="path178"
         style="fill:#008080" /></g><g
       id="g184"
       style="fill:#008080"><path
         d="m 41,65 c 0.197,0 0.396,0 0.593,0 1.431,0 2.625,-1.194 2.625,-2.625 0,-1.431 -1.194,-2.625 -2.625,-2.625 -0.197,0 -0.396,0 -0.593,0 -1.431,0 -2.625,1.194 -2.625,2.625 0,1.431 1.194,2.625 2.625,2.625 z"
         id="path182"
         style="fill:#008080" /></g></g></svg>
